<svg xmlns="http://www.w3.org/2000/svg" viewBox="0 0 512 640" x="0px" y="0px"><title>Microscope</title><g><path d="M196.0508,270.8206a6.6567,6.6567,0,0,0,9.414,0L257.85,218.4358l4.709,4.709a9.0038,9.0038,0,0,0,12.7324,0L286.65,211.7854a58.462,58.462,0,0,1,82.6719-82.6836l.0058.0059,11.3594-11.3594a9.0038,9.0038,0,0,0,0-12.7324l-4.709-4.709,25.4434-25.4414a6.6568,6.6568,0,0,0,0-9.4141L373.92,37.95a6.6567,6.6567,0,0,0-9.414,0L339.0635,63.3928l-4.708-4.709a9,9,0,0,0-12.7325,0L216.2266,164.08a9.0036,9.0036,0,0,0,0,12.7324l4.708,4.709-52.3858,52.3848a6.6562,6.6562,0,0,0,0,9.4121Z"/><path d="M352.3535,146.0823a34.4563,34.4563,0,1,0,0,48.7285A34.4579,34.4579,0,0,0,352.3535,146.0823Z"/><path d="M382.1523,388.9846A148.8626,148.8626,0,0,0,385.35,181.5959a58.3383,58.3383,0,0,1-30.45,40.7422,99.388,99.388,0,0,1-31.3555,148.8536l38.92,34.2109A150.1258,150.1258,0,0,0,382.1523,388.9846Z"/><path d="M171.2461,388.9846a150.1247,150.1247,0,0,0,19.6875,16.418l39.0508-34.3262a99.8947,99.8947,0,0,1-20.7188-14.7187h30.503a6.4,6.4,0,0,0,6.3994-6.4V330.7581a6.4,6.4,0,0,0-6.3994-6.4h-147.2a6.4,6.4,0,0,0-6.4,6.4v19.1992a6.4,6.4,0,0,0,6.4,6.4h54.081A149.04,149.04,0,0,0,171.2461,388.9846Z"/><path d="M400.7227,444H370.0215l-70.4766-61.9511a34.6043,34.6043,0,0,0-45.6914,0L183.375,444H152.6738a15.975,15.975,0,0,0-15.9746,15.9747v.0488A15.9754,15.9754,0,0,0,152.6738,476H400.7227a15.9757,15.9757,0,0,0,15.9765-15.9765v-.0488A15.9754,15.9754,0,0,0,400.7227,444Z"/></g><text x="0" y="527" fill="#000000" font-size="5px" font-weight="bold" font-family="'Helvetica Neue', Helvetica, Arial-Unicode, Arial, Sans-serif">Created by Chanut is Industries</text><text x="0" y="532" fill="#000000" font-size="5px" font-weight="bold" font-family="'Helvetica Neue', Helvetica, Arial-Unicode, Arial, Sans-serif">from the Noun Project</text></svg>